<svg xmlns="http://www.w3.org/2000/svg" viewBox="0 0 1073.17 96.29"><defs><style>.cls-1{fill:#fb6970;}.cls-1,.cls-2{stroke:#000;stroke-miterlimit:10;stroke-width:2px;}.cls-2{fill:#e15718;}</style></defs><g id="Layer_2" data-name="Layer 2"><g id="Layer_1-2" data-name="Layer 1"><path d="M120,75.65V14.56h25.23A26.57,26.57,0,0,1,157.07,17a18,18,0,0,1,7.71,7,20.84,20.84,0,0,1,2.71,10.84,19.89,19.89,0,0,1-2.77,10.78,17.53,17.53,0,0,1-7.88,6.75,29.06,29.06,0,0,1-12.08,2.31H128.81V43.1H142a15.35,15.35,0,0,0,5.59-.88A6.92,6.92,0,0,0,151,39.54a8.46,8.46,0,0,0,1.16-4.64A8.8,8.8,0,0,0,151,30.2a7.16,7.16,0,0,0-3.43-2.8,14.52,14.52,0,0,0-5.58-.94h-7.28V75.65Zm34.39-27.92,15.21,27.92H153.47L138.56,47.73Z"/><path d="M196.13,76.51a25.43,25.43,0,0,1-12.39-2.85,19.33,19.33,0,0,1-8-8.14A26.69,26.69,0,0,1,173,52.92a26.32,26.32,0,0,1,2.81-12.43,20.36,20.36,0,0,1,7.9-8.29,23.47,23.47,0,0,1,12-3,25.39,25.39,0,0,1,8.95,1.52,19.27,19.27,0,0,1,7,4.51,20.66,20.66,0,0,1,4.6,7.35,28.47,28.47,0,0,1,1.64,10v3.64H178.05V47.79H204.3a8.18,8.18,0,0,0-1.1-4.15,7.74,7.74,0,0,0-2.94-2.85,9.38,9.38,0,0,0-8.66.06,8.31,8.31,0,0,0-3.08,2.95A8.5,8.5,0,0,0,187.33,48v8.62a10.33,10.33,0,0,0,1.11,4.9,7.83,7.83,0,0,0,3.13,3.27A9.49,9.49,0,0,0,196.4,66a11.12,11.12,0,0,0,3.52-.53,7.6,7.6,0,0,0,2.71-1.58,6.47,6.47,0,0,0,1.7-2.57l13.4.39a16.6,16.6,0,0,1-3.66,7.83,18.47,18.47,0,0,1-7.38,5.16A28.21,28.21,0,0,1,196.13,76.51Z"/><path d="M268.56,29.83,252.84,75.65H236.13L220.44,29.83h15.37l8.44,31.56h.47l8.48-31.56Z"/><path d="M303.7,55.87v-26h14.55V75.65h-13.9V67.12h-.47a13.29,13.29,0,0,1-5.18,6.66,15.41,15.41,0,0,1-8.81,2.46,15.62,15.62,0,0,1-8.24-2.14,14.73,14.73,0,0,1-5.52-6,19.9,19.9,0,0,1-2-9.06V29.83h14.58V56.17a8.58,8.58,0,0,0,2,5.88A6.75,6.75,0,0,0,296,64.19a7.89,7.89,0,0,0,3.92-1,7,7,0,0,0,2.78-2.83A9.29,9.29,0,0,0,303.7,55.87Z"/><path d="M349,76.51a25.44,25.44,0,0,1-12.4-2.85,19.3,19.3,0,0,1-8-8.14,26.69,26.69,0,0,1-2.79-12.6,26.31,26.31,0,0,1,2.8-12.43,20.39,20.39,0,0,1,7.91-8.29,23.47,23.47,0,0,1,12-3,25.43,25.43,0,0,1,8.95,1.52,19.35,19.35,0,0,1,7,4.51,20.51,20.51,0,0,1,4.59,7.35,28.25,28.25,0,0,1,1.64,10v3.64H330.87V47.79h26.25a8.28,8.28,0,0,0-1.1-4.15,7.74,7.74,0,0,0-2.94-2.85,8.77,8.77,0,0,0-4.28-1,8.9,8.9,0,0,0-4.39,1.09A8.24,8.24,0,0,0,340.15,48v8.62a10.45,10.45,0,0,0,1.1,4.9,8,8,0,0,0,3.13,3.27A9.56,9.56,0,0,0,349.22,66a11.16,11.16,0,0,0,3.52-.53,7.69,7.69,0,0,0,2.71-1.58,6.58,6.58,0,0,0,1.7-2.57l13.39.39a16.49,16.49,0,0,1-3.65,7.83,18.47,18.47,0,0,1-7.38,5.16A28.28,28.28,0,0,1,349,76.51Z"/><path d="M451.71,36.69H436.8a13,13,0,0,0-1.23-4.15,10.11,10.11,0,0,0-2.44-3.16,10.89,10.89,0,0,0-3.6-2,14.15,14.15,0,0,0-4.58-.7,13.24,13.24,0,0,0-7.65,2.18,13.71,13.71,0,0,0-4.92,6.29,25.94,25.94,0,0,0-1.72,10,26.13,26.13,0,0,0,1.75,10.19,12.71,12.71,0,0,0,12.45,8.25,14.88,14.88,0,0,0,4.46-.63,11,11,0,0,0,3.55-1.83,10.08,10.08,0,0,0,2.54-3,12.25,12.25,0,0,0,1.39-3.95l14.91.09a22.76,22.76,0,0,1-2.34,8A25.47,25.47,0,0,1,444,69.43a24.94,24.94,0,0,1-8.27,5.14,30.4,30.4,0,0,1-11.18,1.91,29.85,29.85,0,0,1-14.83-3.65,26.06,26.06,0,0,1-10.34-10.66q-3.79-7-3.79-17.07T399.45,28a26.31,26.31,0,0,1,10.41-10.65,29.86,29.86,0,0,1,14.7-3.64,32.86,32.86,0,0,1,10.27,1.54,25.2,25.2,0,0,1,8.29,4.47,23.1,23.1,0,0,1,5.82,7.21A26.33,26.33,0,0,1,451.71,36.69Z"/><path d="M481.51,76.51a24.63,24.63,0,0,1-12.4-3,20.15,20.15,0,0,1-8-8.3,26.26,26.26,0,0,1-2.79-12.36,26.36,26.36,0,0,1,2.79-12.4,20.12,20.12,0,0,1,8-8.29,27.35,27.35,0,0,1,24.79,0,20.15,20.15,0,0,1,8,8.29,26.36,26.36,0,0,1,2.79,12.4,26.26,26.26,0,0,1-2.79,12.36,20.17,20.17,0,0,1-8,8.3A24.59,24.59,0,0,1,481.51,76.51Zm.09-11A6.47,6.47,0,0,0,486,63.9a10.12,10.12,0,0,0,2.79-4.48,20.55,20.55,0,0,0,1-6.62,20.72,20.72,0,0,0-1-6.68A10.12,10.12,0,0,0,486,41.64,6.47,6.47,0,0,0,481.6,40,6.77,6.77,0,0,0,477,41.64a10,10,0,0,0-2.83,4.48,20.72,20.72,0,0,0-1,6.68,20.55,20.55,0,0,0,1,6.62A10,10,0,0,0,477,63.9,6.77,6.77,0,0,0,481.6,65.51Z"/><path d="M526.73,49.52V75.65H512.14V29.83H526v8.41h.51a13,13,0,0,1,5.19-6.61,15.62,15.62,0,0,1,8.74-2.4,15.82,15.82,0,0,1,8.4,2.17,14.89,14.89,0,0,1,5.55,6,19.29,19.29,0,0,1,2,9v29.2H541.76V49.31a8.45,8.45,0,0,0-1.92-6,7,7,0,0,0-5.41-2.14,8.07,8.07,0,0,0-4,1A6.77,6.77,0,0,0,527.7,45,10,10,0,0,0,526.73,49.52Z"/><path d="M608.19,29.83,592.47,75.65h-16.7L560.08,29.83h15.36l8.44,31.56h.48l8.47-31.56Z"/><path d="M633.7,76.51a25.47,25.47,0,0,1-12.4-2.85,19.3,19.3,0,0,1-8-8.14,26.69,26.69,0,0,1-2.79-12.6,26.32,26.32,0,0,1,2.81-12.43,20.3,20.3,0,0,1,7.9-8.29,23.47,23.47,0,0,1,12-3,25.39,25.39,0,0,1,9,1.52,19.35,19.35,0,0,1,7,4.51,20.51,20.51,0,0,1,4.59,7.35,28.25,28.25,0,0,1,1.64,10v3.64H615.62V47.79h26.25a8.28,8.28,0,0,0-1.1-4.15,7.74,7.74,0,0,0-2.94-2.85,8.77,8.77,0,0,0-4.28-1,8.9,8.9,0,0,0-4.39,1.09,8.36,8.36,0,0,0-3.07,2.95A8.5,8.5,0,0,0,624.9,48v8.62a10.45,10.45,0,0,0,1.1,4.9,8,8,0,0,0,3.13,3.27A9.56,9.56,0,0,0,634,66a11.16,11.16,0,0,0,3.52-.53,7.6,7.6,0,0,0,2.71-1.58,6.58,6.58,0,0,0,1.7-2.57l13.39.39a16.49,16.49,0,0,1-3.65,7.83,18.47,18.47,0,0,1-7.38,5.16A28.21,28.21,0,0,1,633.7,76.51Z"/><path d="M662.93,75.65V29.83H677.1v8.35h.48a12.43,12.43,0,0,1,4.08-6.75,10.35,10.35,0,0,1,6.6-2.23,16.64,16.64,0,0,1,2.08.14,12.63,12.63,0,0,1,2,.4V42.42a13.67,13.67,0,0,0-2.73-.57,24.44,24.44,0,0,0-3-.21A9.53,9.53,0,0,0,682,42.79,8.37,8.37,0,0,0,678.7,46a9.37,9.37,0,0,0-1.18,4.79V75.65Z"/><path d="M726.26,29.83V40.57H697.35V29.83Zm-22.85-11H718V61.24a4.58,4.58,0,0,0,.43,2.16,2.45,2.45,0,0,0,1.27,1.17,5.2,5.2,0,0,0,2,.34,10.29,10.29,0,0,0,1.77-.16c.63-.11,1.1-.21,1.42-.29L727.09,75c-.69.2-1.67.45-2.93.75a24.85,24.85,0,0,1-4.52.56,21.25,21.25,0,0,1-8.79-1.2,11.33,11.33,0,0,1-5.58-4.52,14,14,0,0,1-1.86-7.73Z"/><path d="M734.67,75.65V14.56h14.77V40.39h.8l20.2-25.83h17.39L766.17,41.82l22,33.83H770.55l-15.21-24-5.9,7.45V75.65Z"/><path d="M803.84,24.49a7.56,7.56,0,0,1-5.31-2,6.61,6.61,0,0,1,0-9.85,7.88,7.88,0,0,1,10.58,0,6.63,6.63,0,0,1,0,9.85A7.46,7.46,0,0,1,803.84,24.49Zm-7.33,51.16V29.83h14.58V75.65Z"/><path d="M846.2,29.83V40.57H817.3V29.83Zm-22.85-11h14.59V61.24a4.58,4.58,0,0,0,.43,2.16,2.45,2.45,0,0,0,1.27,1.17,5.2,5.2,0,0,0,2,.34,10.2,10.2,0,0,0,1.77-.16c.63-.11,1.1-.21,1.42-.29L847,75q-1,.3-2.94.75a24.85,24.85,0,0,1-4.52.56,21.25,21.25,0,0,1-8.79-1.2,11.26,11.26,0,0,1-5.57-4.52,13.92,13.92,0,0,1-1.87-7.73Z"/><path d="M904.75,32.87a7,7,0,0,0-2.64-5.11q-2.34-1.85-6.66-1.84a13.21,13.21,0,0,0-4.78.75,6.34,6.34,0,0,0-2.86,2,5,5,0,0,0-1,3,4.32,4.32,0,0,0,.55,2.42,5.76,5.76,0,0,0,1.79,1.83A12.61,12.61,0,0,0,892,37.32a29.17,29.17,0,0,0,3.76,1L901,39.55a37.83,37.83,0,0,1,8,2.63,21.91,21.91,0,0,1,5.84,3.91,15.28,15.28,0,0,1,3.6,5.22,17.62,17.62,0,0,1,1.25,6.62,17.12,17.12,0,0,1-2.92,9.93,18.2,18.2,0,0,1-8.31,6.36,34.59,34.59,0,0,1-13,2.2,35.68,35.68,0,0,1-13.37-2.29,19,19,0,0,1-8.86-7A21.28,21.28,0,0,1,870,55.3h14.14a9.37,9.37,0,0,0,1.58,4.93,8.75,8.75,0,0,0,3.87,3,14.81,14.81,0,0,0,5.71,1,14.37,14.37,0,0,0,5.08-.8,7.34,7.34,0,0,0,3.24-2.24,5.25,5.25,0,0,0,1.16-3.28,4.58,4.58,0,0,0-1.07-3,8.44,8.44,0,0,0-3.21-2.15A35.61,35.61,0,0,0,895,51.1l-6.38-1.49q-7.94-1.83-12.5-5.89t-4.54-11a16.39,16.39,0,0,1,3.05-9.93,20.17,20.17,0,0,1,8.5-6.65,30.48,30.48,0,0,1,12.38-2.39,29.35,29.35,0,0,1,12.33,2.4,19.1,19.1,0,0,1,8.13,6.73,17.92,17.92,0,0,1,2.95,10Z"/><path d="M936.13,92.83a28.85,28.85,0,0,1-5-.4,20.44,20.44,0,0,1-4-1.06l3.22-10.59a15.74,15.74,0,0,0,3.89.83,5.48,5.48,0,0,0,3-.55,4.38,4.38,0,0,0,2-2.37l.56-1.37L923.55,29.83h15.27l8.44,32.69h.48l8.56-32.69h15.36L954.39,80a21.64,21.64,0,0,1-3.53,6.64A15.73,15.73,0,0,1,945,91.19,21.35,21.35,0,0,1,936.13,92.83Z"/><path d="M991.83,49.52V75.65H977.24V29.83h13.87v8.41h.51a13,13,0,0,1,5.19-6.61,15.59,15.59,0,0,1,8.74-2.4,15.82,15.82,0,0,1,8.4,2.17,14.79,14.79,0,0,1,5.54,6,19.17,19.17,0,0,1,2,9v29.2h-14.59V49.31a8.45,8.45,0,0,0-1.92-6,7,7,0,0,0-5.42-2.14,8,8,0,0,0-4,1A6.71,6.71,0,0,0,992.8,45,10,10,0,0,0,991.83,49.52Z"/><path d="M1051.9,76.51a24.45,24.45,0,0,1-12.42-3,20.15,20.15,0,0,1-8-8.31,26.31,26.31,0,0,1-2.78-12.33,26.3,26.3,0,0,1,2.79-12.37,20.23,20.23,0,0,1,8-8.3,24.33,24.33,0,0,1,12.36-3,25.16,25.16,0,0,1,11.09,2.3,17.7,17.7,0,0,1,7.39,6.49,18.85,18.85,0,0,1,2.82,9.83h-13.63a9.19,9.19,0,0,0-2.37-5.52,6.81,6.81,0,0,0-5.09-2,7.2,7.2,0,0,0-4.44,1.42,8.94,8.94,0,0,0-3,4.17,19,19,0,0,0-1.06,6.82,19.33,19.33,0,0,0,1.06,6.85,9,9,0,0,0,3,4.2,7.2,7.2,0,0,0,4.44,1.42,7.32,7.32,0,0,0,3.6-.87,6.85,6.85,0,0,0,2.58-2.55,10.1,10.1,0,0,0,1.28-4.1h13.63a19.92,19.92,0,0,1-2.82,9.9,17.5,17.5,0,0,1-7.31,6.58A24.7,24.7,0,0,1,1051.9,76.51Z"/><path class="cls-1" d="M18.58,67.58a15,15,0,0,0-1.8,6.21,10.43,10.43,0,0,0,.1,1.6L4.37,53.88a5.6,5.6,0,0,1-.7-2.61,6,6,0,0,1,.7-2.7l6-10.5-6.71-3.8,21.82-.4L36.09,53l-6.8-3.9Z"/><path class="cls-1" d="M28.18,7A9.78,9.78,0,0,1,37,1.85c4.1,0,7.3,1.9,9.6,5.8L50,13.35,38.19,33.77,19.08,22.66Z"/><path class="cls-1" d="M29.51,85a10.46,10.46,0,0,1-10.4-10.4,14,14,0,0,1,1.7-6L24,62.84H47.73V85Z"/><path class="cls-2" d="M48.61,6.4A12.18,12.18,0,0,0,42.72,1H67.3a5.35,5.35,0,0,1,4.9,2.6L78.29,14l6.6-3.9-10.6,19-21.68-.3,6.7-3.8Z"/><path class="cls-2" d="M86.52,63a12.19,12.19,0,0,0,7.62-2.4L81.7,82.25A5.55,5.55,0,0,1,76.79,85H65.05v7.72L53.82,73.92,65.05,55.17V63Z"/><path class="cls-2" d="M96.12,45a10.3,10.3,0,0,1,1.4,5.1A11.13,11.13,0,0,1,92,59.3a12.64,12.64,0,0,1-5.7,1.3H79.71L67.91,40.19,87,29.28Z"/></g></g></svg>